<svg width="50" height="50" viewBox="0 0 50 50" fill="none" xmlns="http://www.w3.org/2000/svg">
<path d="M45.2291 15.1875C45.0354 14.9923 44.805 14.8373 44.5512 14.7315C44.2973 14.6257 44.025 14.5713 43.75 14.5713C43.4749 14.5713 43.2026 14.6257 42.9488 14.7315C42.6949 14.8373 42.4645 14.9923 42.2708 15.1875L29.1666 28.3125L20.2291 19.3542C20.0354 19.1589 19.805 19.0039 19.5512 18.8982C19.2973 18.7924 19.025 18.738 18.75 18.738C18.4749 18.738 18.2026 18.7924 17.9488 18.8982C17.6949 19.0039 17.4645 19.1589 17.2708 19.3542L4.77079 31.8542C4.57552 32.0479 4.42053 32.2783 4.31476 32.5322C4.209 32.786 4.15454 33.0583 4.15454 33.3334C4.15454 33.6084 4.209 33.8807 4.31476 34.1346C4.42053 34.3884 4.57552 34.6189 4.77079 34.8125C4.96446 35.0078 5.19488 35.1628 5.44875 35.2686C5.70263 35.3743 5.97493 35.4288 6.24995 35.4288C6.52498 35.4288 6.79728 35.3743 7.05116 35.2686C7.30503 35.1628 7.53545 35.0078 7.72912 34.8125L18.75 23.7709L27.6875 32.7292C27.8811 32.9245 28.1115 33.0795 28.3654 33.1852C28.6193 33.291 28.8916 33.3454 29.1666 33.3454C29.4416 33.3454 29.7139 33.291 29.9678 33.1852C30.2217 33.0795 30.4521 32.9245 30.6458 32.7292L45.2291 18.1459C45.4244 17.9522 45.5794 17.7218 45.6851 17.4679C45.7909 17.214 45.8454 16.9417 45.8454 16.6667C45.8454 16.3917 45.7909 16.1194 45.6851 15.8655C45.5794 15.6116 45.4244 15.3812 45.2291 15.1875V15.1875Z" fill="white"/>
</svg>
