<svg width="50" height="50" viewBox="0 0 50 50" fill="none" xmlns="http://www.w3.org/2000/svg">
<path d="M20.8333 27.0833H6.24996C5.69742 27.0833 5.16752 27.3028 4.77682 27.6935C4.38612 28.0842 4.16663 28.6141 4.16663 29.1666V43.75C4.16663 44.3025 4.38612 44.8324 4.77682 45.2231C5.16752 45.6138 5.69742 45.8333 6.24996 45.8333H20.8333C21.3858 45.8333 21.9157 45.6138 22.3064 45.2231C22.6971 44.8324 22.9166 44.3025 22.9166 43.75V29.1666C22.9166 28.6141 22.6971 28.0842 22.3064 27.6935C21.9157 27.3028 21.3858 27.0833 20.8333 27.0833ZM18.75 41.6666H8.33329V31.25H18.75V41.6666ZM43.75 4.16663H29.1666C28.6141 4.16663 28.0842 4.38612 27.6935 4.77682C27.3028 5.16752 27.0833 5.69742 27.0833 6.24996V20.8333C27.0833 21.3858 27.3028 21.9157 27.6935 22.3064C28.0842 22.6971 28.6141 22.9166 29.1666 22.9166H43.75C44.3025 22.9166 44.8324 22.6971 45.2231 22.3064C45.6138 21.9157 45.8333 21.3858 45.8333 20.8333V6.24996C45.8333 5.69742 45.6138 5.16752 45.2231 4.77682C44.8324 4.38612 44.3025 4.16663 43.75 4.16663V4.16663ZM41.6666 18.75H31.25V8.33329H41.6666V18.75ZM43.75 27.0833H29.1666C28.6141 27.0833 28.0842 27.3028 27.6935 27.6935C27.3028 28.0842 27.0833 28.6141 27.0833 29.1666V43.75C27.0833 44.3025 27.3028 44.8324 27.6935 45.2231C28.0842 45.6138 28.6141 45.8333 29.1666 45.8333H43.75C44.3025 45.8333 44.8324 45.6138 45.2231 45.2231C45.6138 44.8324 45.8333 44.3025 45.8333 43.75V29.1666C45.8333 28.6141 45.6138 28.0842 45.2231 27.6935C44.8324 27.3028 44.3025 27.0833 43.75 27.0833ZM41.6666 41.6666H31.25V31.25H41.6666V41.6666ZM20.8333 4.16663H6.24996C5.69742 4.16663 5.16752 4.38612 4.77682 4.77682C4.38612 5.16752 4.16663 5.69742 4.16663 6.24996V20.8333C4.16663 21.3858 4.38612 21.9157 4.77682 22.3064C5.16752 22.6971 5.69742 22.9166 6.24996 22.9166H20.8333C21.3858 22.9166 21.9157 22.6971 22.3064 22.3064C22.6971 21.9157 22.9166 21.3858 22.9166 20.8333V6.24996C22.9166 5.69742 22.6971 5.16752 22.3064 4.77682C21.9157 4.38612 21.3858 4.16663 20.8333 4.16663V4.16663ZM18.75 18.75H8.33329V8.33329H18.75V18.75Z" fill="white"/>
</svg>
