<svg width="50" height="50" viewBox="0 0 50 50" fill="none" xmlns="http://www.w3.org/2000/svg">
<path d="M10.4166 37.5H19.25C19.5241 37.5015 19.7959 37.449 20.0498 37.3453C20.3036 37.2416 20.5345 37.0889 20.7291 36.8958L35.1458 22.4583L41.0625 16.6666C41.2577 16.4729 41.4127 16.2425 41.5185 15.9887C41.6243 15.7348 41.6787 15.4625 41.6787 15.1875C41.6787 14.9124 41.6243 14.6401 41.5185 14.3863C41.4127 14.1324 41.2577 13.902 41.0625 13.7083L32.2291 4.77079C32.0355 4.57552 31.805 4.42053 31.5512 4.31476C31.2973 4.209 31.025 4.15454 30.75 4.15454C30.4749 4.15454 30.2026 4.209 29.9488 4.31476C29.6949 4.42053 29.4645 4.57552 29.2708 4.77079L23.3958 10.6666L8.93746 25.1041C8.74437 25.2988 8.59161 25.5297 8.48794 25.7835C8.38426 26.0373 8.33171 26.3091 8.33329 26.5833V35.4166C8.33329 35.9692 8.55279 36.4991 8.94349 36.8898C9.33419 37.2805 9.86409 37.5 10.4166 37.5ZM30.75 9.18745L36.6458 15.0833L33.6875 18.0416L27.7916 12.1458L30.75 9.18745ZM12.5 27.4375L24.8541 15.0833L30.75 20.9791L18.3958 33.3333H12.5V27.4375ZM43.75 41.6666H6.24996C5.69742 41.6666 5.16752 41.8861 4.77682 42.2768C4.38612 42.6675 4.16663 43.1974 4.16663 43.75C4.16663 44.3025 4.38612 44.8324 4.77682 45.2231C5.16752 45.6138 5.69742 45.8333 6.24996 45.8333H43.75C44.3025 45.8333 44.8324 45.6138 45.2231 45.2231C45.6138 44.8324 45.8333 44.3025 45.8333 43.75C45.8333 43.1974 45.6138 42.6675 45.2231 42.2768C44.8324 41.8861 44.3025 41.6666 43.75 41.6666Z" fill="white"/>
</svg>
