<svg width="50" height="50" viewBox="0 0 50 50" fill="none" xmlns="http://www.w3.org/2000/svg">
<path d="M25.625 25.4583C26.7367 24.4961 27.6283 23.306 28.2394 21.9688C28.8505 20.6315 29.1667 19.1785 29.1667 17.7083C29.1667 14.9456 28.0692 12.2961 26.1157 10.3426C24.1622 8.38909 21.5127 7.29163 18.75 7.29163C15.9874 7.29163 13.3378 8.38909 11.3843 10.3426C9.43084 12.2961 8.33337 14.9456 8.33337 17.7083C8.33336 19.1785 8.64963 20.6315 9.26072 21.9688C9.87181 23.306 10.7634 24.4961 11.875 25.4583C8.95867 26.7789 6.48434 28.9115 4.74792 31.6011C3.01149 34.2907 2.08644 37.4235 2.08337 40.625C2.08337 41.1775 2.30287 41.7074 2.69357 42.0981C3.08427 42.4888 3.61417 42.7083 4.16671 42.7083C4.71924 42.7083 5.24915 42.4888 5.63985 42.0981C6.03055 41.7074 6.25004 41.1775 6.25004 40.625C6.25004 37.3098 7.567 34.1303 9.91121 31.7861C12.2554 29.4419 15.4348 28.125 18.75 28.125C22.0652 28.125 25.2447 29.4419 27.5889 31.7861C29.9331 34.1303 31.25 37.3098 31.25 40.625C31.25 41.1775 31.4695 41.7074 31.8602 42.0981C32.2509 42.4888 32.7808 42.7083 33.3334 42.7083C33.8859 42.7083 34.4158 42.4888 34.8065 42.0981C35.1972 41.7074 35.4167 41.1775 35.4167 40.625C35.4136 37.4235 34.4886 34.2907 32.7522 31.6011C31.0157 28.9115 28.5414 26.7789 25.625 25.4583V25.4583ZM18.75 23.9583C17.5139 23.9583 16.3055 23.5917 15.2777 22.905C14.2499 22.2182 13.4488 21.2421 12.9758 20.1001C12.5027 18.958 12.379 17.7014 12.6201 16.489C12.8613 15.2766 13.4565 14.163 14.3306 13.2889C15.2047 12.4148 16.3183 11.8195 17.5307 11.5784C18.7431 11.3372 19.9998 11.461 21.1418 11.934C22.2839 12.4071 23.26 13.2082 23.9467 14.236C24.6335 15.2638 25 16.4722 25 17.7083C25 19.3659 24.3416 20.9556 23.1695 22.1277C21.9974 23.2998 20.4076 23.9583 18.75 23.9583ZM39.0417 24.625C40.375 23.1236 41.2459 21.2688 41.5496 19.284C41.8534 17.2992 41.577 15.2689 40.7537 13.4375C39.9305 11.6061 38.5954 10.0516 36.9094 8.96126C35.2233 7.8709 33.258 7.29109 31.25 7.29163C30.6975 7.29163 30.1676 7.51112 29.7769 7.90182C29.3862 8.29252 29.1667 8.82243 29.1667 9.37496C29.1667 9.92749 29.3862 10.4574 29.7769 10.8481C30.1676 11.2388 30.6975 11.4583 31.25 11.4583C32.9076 11.4583 34.4974 12.1168 35.6695 13.2889C36.8416 14.461 37.5 16.0507 37.5 17.7083C37.4971 18.8025 37.2069 19.8768 36.6585 20.8238C36.1101 21.7707 35.3227 22.557 34.375 23.1041C34.0662 23.2823 33.8082 23.5368 33.6258 23.8432C33.4434 24.1496 33.3427 24.4977 33.3334 24.8541C33.3247 25.2078 33.4062 25.5579 33.5702 25.8713C33.7342 26.1848 33.9753 26.4513 34.2709 26.6458L35.0834 27.1875L35.3542 27.3333C37.8654 28.5244 39.984 30.4083 41.4604 32.7631C42.9368 35.118 43.7095 37.8457 43.6875 40.625C43.6875 41.1775 43.907 41.7074 44.2977 42.0981C44.6884 42.4888 45.2183 42.7083 45.7709 42.7083C46.3234 42.7083 46.8533 42.4888 47.244 42.0981C47.6347 41.7074 47.8542 41.1775 47.8542 40.625C47.8712 37.4279 47.0705 34.2797 45.5281 31.4793C43.9857 28.6789 41.7528 26.3194 39.0417 24.625V24.625Z" fill="white"/>
</svg>
