<svg width="50" height="50" viewBox="0 0 50 50" fill="none" xmlns="http://www.w3.org/2000/svg">
<path d="M44.4166 19.8958L40.4791 18.5833L42.3333 14.875C42.5213 14.4868 42.5841 14.0499 42.5132 13.6245C42.4423 13.1991 42.2412 12.8062 41.9375 12.5L37.5 8.06247C37.1921 7.75431 36.7954 7.5504 36.3657 7.47939C35.9359 7.40839 35.4947 7.47387 35.1041 7.66663L31.3958 9.5208L30.0833 5.5833C29.9447 5.17287 29.6816 4.81585 29.3306 4.56194C28.9796 4.30803 28.5582 4.16985 28.125 4.16663H21.875C21.4382 4.16551 21.0121 4.30167 20.657 4.55589C20.3018 4.8101 20.0356 5.16951 19.8958 5.5833L18.5833 9.5208L14.875 7.66663C14.4868 7.47867 14.0499 7.41581 13.6245 7.48671C13.1991 7.55761 12.8062 7.75878 12.5 8.06247L8.06247 12.5C7.75431 12.8078 7.5504 13.2045 7.47939 13.6342C7.40839 14.064 7.47387 14.5052 7.66663 14.8958L9.5208 18.6041L5.5833 19.9166C5.17287 20.0552 4.81585 20.3184 4.56194 20.6694C4.30803 21.0204 4.16985 21.4418 4.16663 21.875V28.125C4.16551 28.5617 4.30167 28.9878 4.55589 29.3429C4.8101 29.6981 5.16951 29.9644 5.5833 30.1041L9.5208 31.4166L7.66663 35.125C7.47867 35.5131 7.41581 35.95 7.48671 36.3754C7.55761 36.8008 7.75878 37.1938 8.06247 37.5L12.5 41.9375C12.8078 42.2456 13.2045 42.4495 13.6342 42.5205C14.064 42.5915 14.5052 42.5261 14.8958 42.3333L18.6041 40.4791L19.9166 44.4166C20.0564 44.8304 20.3227 45.1898 20.6778 45.444C21.033 45.6983 21.459 45.8344 21.8958 45.8333H28.1458C28.5826 45.8344 29.0086 45.6983 29.3638 45.444C29.7189 45.1898 29.9852 44.8304 30.125 44.4166L31.4375 40.4791L35.1458 42.3333C35.5315 42.5165 35.9641 42.5768 36.3852 42.506C36.8063 42.4352 37.1954 42.2367 37.5 41.9375L41.9375 37.5C42.2456 37.1921 42.4495 36.7954 42.5205 36.3657C42.5915 35.9359 42.5261 35.4947 42.3333 35.1041L40.4791 31.3958L44.4166 30.0833C44.8271 29.9447 45.1841 29.6816 45.438 29.3306C45.6919 28.9796 45.8301 28.5582 45.8333 28.125V21.875C45.8344 21.4382 45.6983 21.0121 45.444 20.657C45.1898 20.3018 44.8304 20.0356 44.4166 19.8958ZM41.6666 26.625L39.1666 27.4583C38.5917 27.6448 38.0643 27.9541 37.6209 28.3648C37.1775 28.7754 36.8288 29.2777 36.5988 29.8366C36.3689 30.3955 36.2634 30.9978 36.2895 31.6016C36.3155 32.2054 36.4727 32.7963 36.75 33.3333L37.9375 35.7083L35.6458 38L33.3333 36.75C32.799 36.4838 32.2138 36.3355 31.6173 36.3152C31.0207 36.2948 30.4268 36.4029 29.8756 36.632C29.3245 36.8612 28.829 37.2061 28.4227 37.6434C28.0164 38.0807 27.7089 38.6001 27.5208 39.1666L26.6875 41.6666H23.375L22.5416 39.1666C22.3552 38.5917 22.0459 38.0643 21.6352 37.6209C21.2245 37.1775 20.7223 36.8288 20.1633 36.5988C19.6044 36.3689 19.0022 36.2634 18.3983 36.2895C17.7945 36.3155 17.2036 36.4727 16.6666 36.75L14.2916 37.9375L12 35.6458L13.25 33.3333C13.5272 32.7963 13.6844 32.2054 13.7105 31.6016C13.7366 30.9978 13.631 30.3955 13.4011 29.8366C13.1712 29.2777 12.8224 28.7754 12.379 28.3648C11.9356 27.9541 11.4082 27.6448 10.8333 27.4583L8.3333 26.625V23.375L10.8333 22.5416C11.4082 22.3552 11.9356 22.0459 12.379 21.6352C12.8224 21.2245 13.1712 20.7223 13.4011 20.1633C13.631 19.6044 13.7366 19.0022 13.7105 18.3983C13.6844 17.7945 13.5272 17.2036 13.25 16.6666L12.0625 14.3541L14.3541 12.0625L16.6666 13.25C17.2036 13.5272 17.7945 13.6844 18.3983 13.7105C19.0022 13.7366 19.6044 13.631 20.1633 13.4011C20.7223 13.1712 21.2245 12.8224 21.6352 12.379C22.0459 11.9356 22.3552 11.4082 22.5416 10.8333L23.375 8.3333H26.625L27.4583 10.8333C27.6448 11.4082 27.9541 11.9356 28.3648 12.379C28.7754 12.8224 29.2777 13.1712 29.8366 13.4011C30.3955 13.631 30.9978 13.7366 31.6016 13.7105C32.2054 13.6844 32.7963 13.5272 33.3333 13.25L35.7083 12.0625L38 14.3541L36.75 16.6666C36.4838 17.2009 36.3355 17.7861 36.3152 18.3827C36.2948 18.9792 36.4029 19.5732 36.632 20.1243C36.8612 20.6755 37.2061 21.1709 37.6434 21.5772C38.0807 21.9835 38.6001 22.2911 39.1666 22.4791L41.6666 23.3125V26.625ZM25 16.6666C23.3518 16.6666 21.7406 17.1554 20.3702 18.0711C18.9998 18.9867 17.9317 20.2882 17.301 21.8109C16.6702 23.3337 16.5052 25.0092 16.8268 26.6257C17.1483 28.2422 17.942 29.7271 19.1074 30.8925C20.2728 32.058 21.7577 32.8516 23.3742 33.1732C24.9907 33.4947 26.6663 33.3297 28.189 32.699C29.7117 32.0682 31.0132 31.0001 31.9289 29.6297C32.8446 28.2593 33.3333 26.6481 33.3333 25C33.3333 22.7898 32.4553 20.6702 30.8925 19.1074C29.3297 17.5446 27.2101 16.6666 25 16.6666V16.6666ZM25 29.1666C24.1759 29.1666 23.3703 28.9223 22.6851 28.4644C21.9999 28.0066 21.4658 27.3558 21.1505 26.5945C20.8351 25.8331 20.7526 24.9953 20.9134 24.1871C21.0741 23.3788 21.471 22.6364 22.0537 22.0537C22.6364 21.471 23.3788 21.0741 24.1871 20.9134C24.9953 20.7526 25.8331 20.8351 26.5945 21.1505C27.3558 21.4658 28.0066 21.9999 28.4644 22.6851C28.9223 23.3703 29.1666 24.1759 29.1666 25C29.1666 26.105 28.7276 27.1648 27.9462 27.9462C27.1648 28.7276 26.105 29.1666 25 29.1666Z" fill="white"/>
</svg>
