<svg width="278" height="85" viewBox="0 0 278 85" fill="none" xmlns="http://www.w3.org/2000/svg">
<path d="M100.676 55L88.82 24.84H95.424L103.172 43.716L111.388 24.84H118.096L126.832 43.82L134.008 24.84H140.664L129.276 55H124.388L114.768 33.732L105.616 55H100.676ZM148.021 55V31.808C148.021 30.5253 148.333 29.364 148.957 28.324C149.616 27.284 150.465 26.452 151.505 25.828C152.58 25.1693 153.741 24.84 154.989 24.84H171.785V31.028H155.197C154.92 31.028 154.677 31.132 154.469 31.34C154.296 31.5133 154.209 31.7387 154.209 32.016V55H148.021ZM187.356 55C186.073 55 184.912 54.688 183.872 54.064C182.832 53.4053 181.983 52.556 181.324 51.516C180.7 50.476 180.388 49.3147 180.388 48.032V31.808C180.388 30.5253 180.7 29.364 181.324 28.324C181.983 27.284 182.832 26.452 183.872 25.828C184.912 25.1693 186.073 24.84 187.356 24.84H204.048C205.365 24.84 206.544 25.1693 207.584 25.828C208.624 26.452 209.456 27.284 210.08 28.324C210.704 29.364 211.016 30.5253 211.016 31.808V43.04H186.576V47.824C186.576 48.1013 186.663 48.344 186.836 48.552C187.044 48.7253 187.287 48.812 187.564 48.812H211.016V55H187.356ZM186.576 37.372H204.828V32.016C204.828 31.7387 204.724 31.5133 204.516 31.34C204.343 31.132 204.117 31.028 203.84 31.028H187.564C187.287 31.028 187.044 31.132 186.836 31.34C186.663 31.5133 186.576 31.7387 186.576 32.016V37.372ZM221.748 55V24.84H245.46C246.708 24.84 247.852 25.1693 248.892 25.828C249.967 26.452 250.816 27.284 251.44 28.324C252.064 29.364 252.376 30.5253 252.376 31.808V55H246.188V32.016C246.188 31.7387 246.084 31.5133 245.876 31.34C245.703 31.132 245.495 31.028 245.252 31.028H228.924C228.681 31.028 228.456 31.132 228.248 31.34C228.04 31.5133 227.936 31.7387 227.936 32.016V55H221.748Z" fill="black"/>
<path d="M52.9124 27.3298L51.0038 37.8357C35.0334 37.579 22.9192 25.2283 18.8584 19.0851C31.8025 13.7524 46.9544 22.3596 52.9124 27.3298Z" fill="#DC2626"/>
<path d="M57.7956 14.8694C61.1056 16.2192 69.7562 17.6285 77.8789 12.4678C74.8651 9.25914 66.629 5.24728 57.7956 14.8694Z" fill="#16A34A"/>
<path d="M76.0477 26.6678C75.4412 32.5244 72.0747 47.5764 63.4614 60.931C60.4523 52.775 58.7568 34.504 76.0477 26.6678Z" fill="#EAB308"/>
<path d="M23.1429 78.2432C37.5548 78.9071 67.8936 72.1023 73.9529 39.5723C74.4296 33.6297 76.5825 20.0163 81.3809 13.104M81.3809 13.104C68.7209 6.68761 45.0612 5.65771 51.7031 52.8696C56.999 47.4074 63.6814 34.1761 48.0434 24.9484C42.1313 20.7558 26.0744 14.1089 9.14342 21.0625C10.2833 26.4513 18.4401 38.3934 41.948 43.0515M81.3809 13.104L85.9146 12.1812" stroke="black" stroke-width="2.64378" stroke-linecap="round"/>
<circle cx="68.8833" cy="16.3223" r="1.65236" transform="rotate(-11.505 68.8833 16.3223)" fill="black"/>
<path d="M102.71 59.03V59.77H99.68V62.12H102.14V62.86H99.68V66H98.77V59.03H102.71ZM107.819 59.77V62.1H110.359V62.85H107.819V65.25H110.659V66H106.909V59.02H110.659V59.77H107.819ZM116.046 59.77V62.1H118.586V62.85H116.046V65.25H118.886V66H115.136V59.02H118.886V59.77H116.046ZM124.273 65.26H126.713V66H123.363V59.03H124.273V65.26ZM140.835 59.03V59.77H138.935V66H138.025V59.77H136.115V59.03H140.835ZM150.426 59.03V66H149.516V62.84H145.966V66H145.056V59.03H145.966V62.09H149.516V59.03H150.426ZM155.989 59.77V62.1H158.529V62.85H155.989V65.25H158.829V66H155.079V59.02H158.829V59.77H155.989ZM169.962 59.03V63.44C169.962 64.06 170.112 64.52 170.412 64.82C170.719 65.12 171.142 65.27 171.682 65.27C172.216 65.27 172.632 65.12 172.932 64.82C173.239 64.52 173.392 64.06 173.392 63.44V59.03H174.302V63.43C174.302 64.01 174.186 64.5 173.952 64.9C173.719 65.2933 173.402 65.5867 173.002 65.78C172.609 65.9733 172.166 66.07 171.672 66.07C171.179 66.07 170.732 65.9733 170.332 65.78C169.939 65.5867 169.626 65.2933 169.392 64.9C169.166 64.5 169.052 64.01 169.052 63.43V59.03H169.962ZM184.4 66H183.49L179.83 60.45V66H178.92V59.02H179.83L183.49 64.56V59.02H184.4V66ZM189.962 59.03V66H189.052V59.03H189.962ZM200.203 67.32L198.813 65.93C198.473 66.0233 198.126 66.07 197.773 66.07C197.126 66.07 196.536 65.92 196.003 65.62C195.469 65.3133 195.046 64.89 194.733 64.35C194.426 63.8033 194.273 63.19 194.273 62.51C194.273 61.83 194.426 61.22 194.733 60.68C195.046 60.1333 195.469 59.71 196.003 59.41C196.536 59.1033 197.126 58.95 197.773 58.95C198.426 58.95 199.019 59.1033 199.553 59.41C200.086 59.71 200.506 60.13 200.813 60.67C201.119 61.21 201.273 61.8233 201.273 62.51C201.273 63.1767 201.126 63.7767 200.833 64.31C200.539 64.8433 200.136 65.2633 199.623 65.57L201.383 67.32H200.203ZM195.203 62.51C195.203 63.0633 195.313 63.55 195.533 63.97C195.759 64.39 196.066 64.7133 196.453 64.94C196.846 65.1667 197.286 65.28 197.773 65.28C198.259 65.28 198.696 65.1667 199.083 64.94C199.476 64.7133 199.783 64.39 200.003 63.97C200.229 63.55 200.343 63.0633 200.343 62.51C200.343 61.95 200.229 61.4633 200.003 61.05C199.783 60.63 199.479 60.3067 199.093 60.08C198.706 59.8533 198.266 59.74 197.773 59.74C197.279 59.74 196.839 59.8533 196.453 60.08C196.066 60.3067 195.759 60.63 195.533 61.05C195.313 61.4633 195.203 61.95 195.203 62.51ZM206.483 59.03V63.44C206.483 64.06 206.633 64.52 206.933 64.82C207.24 65.12 207.663 65.27 208.203 65.27C208.737 65.27 209.153 65.12 209.453 64.82C209.76 64.52 209.913 64.06 209.913 63.44V59.03H210.823V63.43C210.823 64.01 210.707 64.5 210.473 64.9C210.24 65.2933 209.923 65.5867 209.523 65.78C209.13 65.9733 208.687 66.07 208.193 66.07C207.7 66.07 207.253 65.9733 206.853 65.78C206.46 65.5867 206.147 65.2933 205.913 64.9C205.687 64.5 205.573 64.01 205.573 63.43V59.03H206.483ZM216.351 59.77V62.1H218.891V62.85H216.351V65.25H219.191V66H215.441V59.02H219.191V59.77H216.351ZM229.148 66H228.238L224.578 60.45V66H223.668V59.02H224.578L228.238 64.56V59.02H229.148V66ZM234.71 59.77V62.1H237.25V62.85H234.71V65.25H237.55V66H233.8V59.02H237.55V59.77H234.71ZM244.237 66.07C243.777 66.07 243.363 65.99 242.997 65.83C242.637 65.6633 242.353 65.4367 242.147 65.15C241.94 64.8567 241.833 64.52 241.827 64.14H242.797C242.83 64.4667 242.963 64.7433 243.197 64.97C243.437 65.19 243.783 65.3 244.237 65.3C244.67 65.3 245.01 65.1933 245.257 64.98C245.51 64.76 245.637 64.48 245.637 64.14C245.637 63.8733 245.563 63.6567 245.417 63.49C245.27 63.3233 245.087 63.1967 244.867 63.11C244.647 63.0233 244.35 62.93 243.977 62.83C243.517 62.71 243.147 62.59 242.867 62.47C242.593 62.35 242.357 62.1633 242.157 61.91C241.963 61.65 241.867 61.3033 241.867 60.87C241.867 60.49 241.963 60.1533 242.157 59.86C242.35 59.5667 242.62 59.34 242.967 59.18C243.32 59.02 243.723 58.94 244.177 58.94C244.83 58.94 245.363 59.1033 245.777 59.43C246.197 59.7567 246.433 60.19 246.487 60.73H245.487C245.453 60.4633 245.313 60.23 245.067 60.03C244.82 59.8233 244.493 59.72 244.087 59.72C243.707 59.72 243.397 59.82 243.157 60.02C242.917 60.2133 242.797 60.4867 242.797 60.84C242.797 61.0933 242.867 61.3 243.007 61.46C243.153 61.62 243.33 61.7433 243.537 61.83C243.75 61.91 244.047 62.0033 244.427 62.11C244.887 62.2367 245.257 62.3633 245.537 62.49C245.817 62.61 246.057 62.8 246.257 63.06C246.457 63.3133 246.557 63.66 246.557 64.1C246.557 64.44 246.467 64.76 246.287 65.06C246.107 65.36 245.84 65.6033 245.487 65.79C245.133 65.9767 244.717 66.07 244.237 66.07ZM253.206 66.07C252.746 66.07 252.332 65.99 251.966 65.83C251.606 65.6633 251.322 65.4367 251.116 65.15C250.909 64.8567 250.802 64.52 250.796 64.14H251.766C251.799 64.4667 251.932 64.7433 252.166 64.97C252.406 65.19 252.752 65.3 253.206 65.3C253.639 65.3 253.979 65.1933 254.226 64.98C254.479 64.76 254.606 64.48 254.606 64.14C254.606 63.8733 254.532 63.6567 254.386 63.49C254.239 63.3233 254.056 63.1967 253.836 63.11C253.616 63.0233 253.319 62.93 252.946 62.83C252.486 62.71 252.116 62.59 251.836 62.47C251.562 62.35 251.326 62.1633 251.126 61.91C250.932 61.65 250.836 61.3033 250.836 60.87C250.836 60.49 250.932 60.1533 251.126 59.86C251.319 59.5667 251.589 59.34 251.936 59.18C252.289 59.02 252.692 58.94 253.146 58.94C253.799 58.94 254.332 59.1033 254.746 59.43C255.166 59.7567 255.402 60.19 255.456 60.73H254.456C254.422 60.4633 254.282 60.23 254.036 60.03C253.789 59.8233 253.462 59.72 253.056 59.72C252.676 59.72 252.366 59.82 252.126 60.02C251.886 60.2133 251.766 60.4867 251.766 60.84C251.766 61.0933 251.836 61.3 251.976 61.46C252.122 61.62 252.299 61.7433 252.506 61.83C252.719 61.91 253.016 62.0033 253.396 62.11C253.856 62.2367 254.226 62.3633 254.506 62.49C254.786 62.61 255.026 62.8 255.226 63.06C255.426 63.3133 255.526 63.66 255.526 64.1C255.526 64.44 255.436 64.76 255.256 65.06C255.076 65.36 254.809 65.6033 254.456 65.79C254.102 65.9767 253.686 66.07 253.206 66.07Z" fill="black"/>
</svg>
